<mxfile modified="2022-05-02T20:20:31.060Z" host="app.diagrams.net" agent="5.0 (Windows NT 10.0; Win64; x64) AppleWebKit/537.36 (KHTML, like Gecko) Chrome/100.0.4896.127 Safari/537.36 Edg/100.0.1185.50" etag="fV8d-mHw1DBH_0TN3iGk" compressed="false" version="17.5.0" type="google">
  <diagram name="Qualities/Addressed/Reliability" id="1G0T4fXiUqry-KbbEUsF">
    <mxGraphModel grid="1" page="1" gridSize="10" guides="1" tooltips="1" connect="1" arrows="1" fold="1" pageScale="1" pageWidth="827" pageHeight="1169" math="0" shadow="0">
      <root>
        <mxCell id="7yYuBdGiNPjpBp-45Gdu-0" />
        <mxCell id="7yYuBdGiNPjpBp-45Gdu-21" value="Diagram" parent="7yYuBdGiNPjpBp-45Gdu-0" />
        <UserObject label="Maturity" id="7yYuBdGiNPjpBp-45Gdu-27">
          <mxCell style="strokeColor=#bac8d3;html=1;fontColor=#2f5b7c;fontSize=12;align=left;fillColor=#E6E6E6;" vertex="1" parent="7yYuBdGiNPjpBp-45Gdu-21">
            <mxGeometry x="140" y="300" width="540" height="20" as="geometry" />
          </mxCell>
        </UserObject>
        <UserObject label="Availability" id="7yYuBdGiNPjpBp-45Gdu-28">
          <mxCell style="strokeColor=#bac8d3;html=1;fontColor=#2f5b7c;fontSize=12;align=left;fillColor=#E6E6E6;" vertex="1" parent="7yYuBdGiNPjpBp-45Gdu-21">
            <mxGeometry x="140" y="360" width="540" height="20" as="geometry" />
          </mxCell>
        </UserObject>
        <UserObject label="Scalability" id="7yYuBdGiNPjpBp-45Gdu-29">
          <mxCell style="strokeColor=#bac8d3;html=1;fontColor=#2f5b7c;fontSize=12;align=left;fillColor=#E6E6E6;" vertex="1" parent="7yYuBdGiNPjpBp-45Gdu-21">
            <mxGeometry x="140" y="420" width="540" height="20" as="geometry" />
          </mxCell>
        </UserObject>
        <UserObject label="Fault Tolerance" id="7yYuBdGiNPjpBp-45Gdu-30">
          <mxCell style="strokeColor=#bac8d3;html=1;fontColor=#2f5b7c;fontSize=12;align=left;fillColor=#E6E6E6;" vertex="1" parent="7yYuBdGiNPjpBp-45Gdu-21">
            <mxGeometry x="140" y="480" width="540" height="20" as="geometry" />
          </mxCell>
        </UserObject>
        <UserObject label="Recoverability" id="7yYuBdGiNPjpBp-45Gdu-31">
          <mxCell style="strokeColor=#bac8d3;html=1;fontColor=#2f5b7c;fontSize=12;align=left;fillColor=#E6E6E6;" vertex="1" parent="7yYuBdGiNPjpBp-45Gdu-21">
            <mxGeometry x="140" y="580" width="540" height="20" as="geometry" />
          </mxCell>
        </UserObject>
        <UserObject label="Control" id="7yYuBdGiNPjpBp-45Gdu-33">
          <mxCell style="strokeColor=#bac8d3;html=1;fontColor=#2f5b7c;fontSize=12;align=left;horizontal=0;fillColor=#E6E6E6;" vertex="1" parent="7yYuBdGiNPjpBp-45Gdu-21">
            <mxGeometry x="140" y="180" width="20" height="100" as="geometry" />
          </mxCell>
        </UserObject>
        <UserObject label="Risk Addressed" id="7yYuBdGiNPjpBp-45Gdu-34">
          <mxCell style="strokeColor=#bac8d3;html=1;fontColor=#2f5b7c;fontSize=12;align=left;horizontal=0;fontStyle=2" vertex="1" parent="7yYuBdGiNPjpBp-45Gdu-21">
            <mxGeometry x="180" y="180" width="20" height="100" as="geometry" />
          </mxCell>
        </UserObject>
        <UserObject label="Utilising a default catch-all error handler." id="7yYuBdGiNPjpBp-45Gdu-37">
          <mxCell style="strokeColor=#bac8d3;html=1;fontColor=#2f5b7c;fontSize=11;align=left;fontStyle=2" vertex="1" parent="7yYuBdGiNPjpBp-45Gdu-21">
            <mxGeometry x="160" y="600" width="520" height="20" as="geometry" />
          </mxCell>
        </UserObject>
        <UserObject label="Azure dynamic horiz. scaling used." id="7yYuBdGiNPjpBp-45Gdu-38">
          <mxCell style="strokeColor=#bac8d3;html=1;fontColor=#2f5b7c;fontSize=11;align=left;fontStyle=2" vertex="1" parent="7yYuBdGiNPjpBp-45Gdu-21">
            <mxGeometry x="160" y="440" width="520" height="20" as="geometry" />
          </mxCell>
        </UserObject>
        <UserObject label="Azure dynamic horiz. scaling used." id="7yYuBdGiNPjpBp-45Gdu-39">
          <mxCell style="strokeColor=#bac8d3;html=1;fontColor=#2f5b7c;fontSize=11;align=left;fontStyle=2" vertex="1" parent="7yYuBdGiNPjpBp-45Gdu-21">
            <mxGeometry x="160" y="380" width="520" height="20" as="geometry" />
          </mxCell>
        </UserObject>
        <UserObject label="Code is new but DDD pattern is mature." id="7yYuBdGiNPjpBp-45Gdu-40">
          <mxCell style="strokeColor=#bac8d3;html=1;fontColor=#2f5b7c;fontSize=11;align=left;fontStyle=2" vertex="1" parent="7yYuBdGiNPjpBp-45Gdu-21">
            <mxGeometry x="160" y="320" width="520" height="20" as="geometry" />
          </mxCell>
        </UserObject>
        <UserObject label="ISO-25010/Reliability" id="7yYuBdGiNPjpBp-45Gdu-53">
          <mxCell style="strokeColor=#666666;html=1;fontColor=#333333;fontSize=12;align=left;fontStyle=1;fillColor=#CCCCCC;" vertex="1" parent="7yYuBdGiNPjpBp-45Gdu-21">
            <mxGeometry x="120" y="280" width="560" height="20" as="geometry" />
          </mxCell>
        </UserObject>
        <UserObject label="Group" id="7yYuBdGiNPjpBp-45Gdu-55">
          <mxCell style="strokeColor=#666666;html=1;fontColor=#333333;fontSize=12;align=left;horizontal=0;fillColor=#f5f5f5;" vertex="1" parent="7yYuBdGiNPjpBp-45Gdu-21">
            <mxGeometry x="120" y="180" width="20" height="100" as="geometry" />
          </mxCell>
        </UserObject>
        <UserObject label="Baseline wide error trapping." id="7yYuBdGiNPjpBp-45Gdu-62">
          <mxCell style="strokeColor=#bac8d3;html=1;fontColor=#2f5b7c;fontSize=11;align=left;fontStyle=2" vertex="1" parent="7yYuBdGiNPjpBp-45Gdu-21">
            <mxGeometry x="160" y="500" width="520" height="20" as="geometry" />
          </mxCell>
        </UserObject>
        <UserObject label="Load balancer configured to Health Check" id="7yYuBdGiNPjpBp-45Gdu-63">
          <mxCell style="strokeColor=#bac8d3;html=1;fontColor=#2f5b7c;fontSize=11;align=left;fontStyle=2" vertex="1" parent="7yYuBdGiNPjpBp-45Gdu-21">
            <mxGeometry x="160" y="540" width="520" height="20" as="geometry" />
          </mxCell>
        </UserObject>
        <UserObject label="DR Plan executed quarterly to check." id="7yYuBdGiNPjpBp-45Gdu-64">
          <mxCell style="strokeColor=#bac8d3;html=1;fontColor=#2f5b7c;fontSize=11;align=left;fontStyle=2" vertex="1" parent="7yYuBdGiNPjpBp-45Gdu-21">
            <mxGeometry x="160" y="720" width="520" height="20" as="geometry" />
          </mxCell>
        </UserObject>
        <UserObject label="In this biz, maturity=&lt;u style=&quot;font-style: normal&quot;&gt;old&lt;/u&gt;. Good dev patterns=constant." id="7yYuBdGiNPjpBp-45Gdu-74">
          <mxCell style="strokeColor=#bac8d3;html=1;fontColor=#2f5b7c;fontSize=11;align=left;fontStyle=2" vertex="1" parent="7yYuBdGiNPjpBp-45Gdu-21">
            <mxGeometry x="180" y="340" width="500" height="20" as="geometry" />
          </mxCell>
        </UserObject>
        <UserObject label="System gets overloaded at peak times of day." id="7yYuBdGiNPjpBp-45Gdu-75">
          <mxCell style="strokeColor=#bac8d3;html=1;fontColor=#2f5b7c;fontSize=11;align=left;fontStyle=2" vertex="1" parent="7yYuBdGiNPjpBp-45Gdu-21">
            <mxGeometry x="180" y="400" width="500" height="20" as="geometry" />
          </mxCell>
        </UserObject>
        <UserObject label="The system fails, and reputation suffers." id="7yYuBdGiNPjpBp-45Gdu-76">
          <mxCell style="strokeColor=#bac8d3;html=1;fontColor=#2f5b7c;fontSize=11;align=left;fontStyle=2" vertex="1" parent="7yYuBdGiNPjpBp-45Gdu-21">
            <mxGeometry x="180" y="460" width="500" height="20" as="geometry" />
          </mxCell>
        </UserObject>
        <UserObject label="End users see gobblygook web server errors." id="7yYuBdGiNPjpBp-45Gdu-77">
          <mxCell style="strokeColor=#bac8d3;html=1;fontColor=#2f5b7c;fontSize=11;align=left;fontStyle=2" vertex="1" parent="7yYuBdGiNPjpBp-45Gdu-21">
            <mxGeometry x="180" y="520" width="500" height="20" as="geometry" />
          </mxCell>
        </UserObject>
        <UserObject label="Requests are handed to off systems=intermittent errs." id="7yYuBdGiNPjpBp-45Gdu-78">
          <mxCell style="strokeColor=#bac8d3;html=1;fontColor=#2f5b7c;fontSize=11;align=left;fontStyle=2" vertex="1" parent="7yYuBdGiNPjpBp-45Gdu-21">
            <mxGeometry x="180" y="560" width="500" height="20" as="geometry" />
          </mxCell>
        </UserObject>
        <UserObject label="System crashes and cannot handle subsequent requests." id="7yYuBdGiNPjpBp-45Gdu-79">
          <mxCell style="strokeColor=#bac8d3;html=1;fontColor=#2f5b7c;fontSize=11;align=left;fontStyle=2" vertex="1" parent="7yYuBdGiNPjpBp-45Gdu-21">
            <mxGeometry x="180" y="620" width="500" height="20" as="geometry" />
          </mxCell>
        </UserObject>
        <UserObject label="Disaster strikes. DR kicks in. Doesn&#39;t work. Real loss." id="7yYuBdGiNPjpBp-45Gdu-80">
          <mxCell style="strokeColor=#bac8d3;html=1;fontColor=#2f5b7c;fontSize=11;align=left;fontStyle=2" vertex="1" parent="7yYuBdGiNPjpBp-45Gdu-21">
            <mxGeometry x="180" y="740" width="500" height="20" as="geometry" />
          </mxCell>
        </UserObject>
        <UserObject label="Backups of Database set to 35 days." id="JvcYtIK7XlUA3i1HEUWt-0">
          <mxCell style="strokeColor=#bac8d3;html=1;fontColor=#2f5b7c;fontSize=11;align=left;fontStyle=2" vertex="1" parent="7yYuBdGiNPjpBp-45Gdu-21">
            <mxGeometry x="160" y="640" width="520" height="20" as="geometry" />
          </mxCell>
        </UserObject>
        <UserObject label="Backups Copied to Long Term Retrieval." id="JvcYtIK7XlUA3i1HEUWt-1">
          <mxCell style="strokeColor=#bac8d3;html=1;fontColor=#2f5b7c;fontSize=11;align=left;fontStyle=2" vertex="1" parent="7yYuBdGiNPjpBp-45Gdu-21">
            <mxGeometry x="160" y="680" width="520" height="20" as="geometry" />
          </mxCell>
        </UserObject>
        <UserObject label="Bug takes longer than 1m to spot &amp;amp; fix. Data corrupted." id="JvcYtIK7XlUA3i1HEUWt-2">
          <mxCell style="strokeColor=#bac8d3;html=1;fontColor=#2f5b7c;fontSize=11;align=left;fontStyle=2" vertex="1" parent="7yYuBdGiNPjpBp-45Gdu-21">
            <mxGeometry x="180" y="660" width="500" height="20" as="geometry" />
          </mxCell>
        </UserObject>
        <UserObject label="No DR restoration can damage reputation and business." id="JvcYtIK7XlUA3i1HEUWt-3">
          <mxCell style="strokeColor=#bac8d3;html=1;fontColor=#2f5b7c;fontSize=11;align=left;fontStyle=2" vertex="1" parent="7yYuBdGiNPjpBp-45Gdu-21">
            <mxGeometry x="180" y="700" width="500" height="20" as="geometry" />
          </mxCell>
        </UserObject>
        <UserObject label="Infrastructure" id="8onp3w-1rk00jEaGF2zk-0">
          <mxCell style="strokeColor=#bac8d3;html=1;fontColor=#2f5b7c;fontSize=12;align=left;horizontal=0;fontStyle=2" vertex="1" parent="7yYuBdGiNPjpBp-45Gdu-21">
            <mxGeometry x="600" y="180" width="20" height="100" as="geometry" />
          </mxCell>
        </UserObject>
        <UserObject label="Info Svc" id="8onp3w-1rk00jEaGF2zk-1">
          <mxCell style="strokeColor=#bac8d3;html=1;fontColor=#2f5b7c;fontSize=12;align=left;horizontal=0;fontStyle=2" vertex="1" parent="7yYuBdGiNPjpBp-45Gdu-21">
            <mxGeometry x="640" y="180" width="20" height="100" as="geometry" />
          </mxCell>
        </UserObject>
        <UserObject label="Info Svc Client" id="8onp3w-1rk00jEaGF2zk-2">
          <mxCell style="strokeColor=#bac8d3;html=1;fontColor=#2f5b7c;fontSize=12;align=left;horizontal=0;fontStyle=2" vertex="1" parent="7yYuBdGiNPjpBp-45Gdu-21">
            <mxGeometry x="660" y="180" width="20" height="100" as="geometry" />
          </mxCell>
        </UserObject>
        <UserObject label="Delivery Service" id="8onp3w-1rk00jEaGF2zk-3">
          <mxCell style="strokeColor=#bac8d3;html=1;fontColor=#2f5b7c;fontSize=12;align=left;horizontal=0;fontStyle=2" vertex="1" parent="7yYuBdGiNPjpBp-45Gdu-21">
            <mxGeometry x="620" y="180" width="20" height="100" as="geometry" />
          </mxCell>
        </UserObject>
        <UserObject label="Processes" id="8onp3w-1rk00jEaGF2zk-4">
          <mxCell style="strokeColor=#bac8d3;html=1;fontColor=#2f5b7c;fontSize=12;align=left;horizontal=0;fontStyle=2" vertex="1" parent="7yYuBdGiNPjpBp-45Gdu-21">
            <mxGeometry x="580" y="180" width="20" height="100" as="geometry" />
          </mxCell>
        </UserObject>
        <mxCell id="8onp3w-1rk00jEaGF2zk-5" value="&lt;b&gt;X&lt;/b&gt;" style="text;html=1;strokeColor=#666666;fillColor=#f5f5f5;align=center;verticalAlign=middle;whiteSpace=wrap;rounded=0;fontSize=12;fontColor=#333333;" vertex="1" parent="7yYuBdGiNPjpBp-45Gdu-21">
          <mxGeometry x="640" y="320" width="20" height="20" as="geometry" />
        </mxCell>
        <mxCell id="8onp3w-1rk00jEaGF2zk-6" value="&lt;b&gt;X&lt;/b&gt;" style="text;html=1;strokeColor=#666666;fillColor=#f5f5f5;align=center;verticalAlign=middle;whiteSpace=wrap;rounded=0;fontSize=12;fontColor=#333333;" vertex="1" parent="7yYuBdGiNPjpBp-45Gdu-21">
          <mxGeometry x="580" y="320" width="20" height="20" as="geometry" />
        </mxCell>
        <mxCell id="8onp3w-1rk00jEaGF2zk-7" value="&lt;b&gt;X&lt;/b&gt;" style="text;html=1;strokeColor=#666666;fillColor=#f5f5f5;align=center;verticalAlign=middle;whiteSpace=wrap;rounded=0;fontSize=12;fontColor=#333333;" vertex="1" parent="7yYuBdGiNPjpBp-45Gdu-21">
          <mxGeometry x="600" y="380" width="20" height="20" as="geometry" />
        </mxCell>
        <mxCell id="8onp3w-1rk00jEaGF2zk-8" value="&lt;b&gt;X&lt;/b&gt;" style="text;html=1;strokeColor=#666666;fillColor=#f5f5f5;align=center;verticalAlign=middle;whiteSpace=wrap;rounded=0;fontSize=12;fontColor=#333333;" vertex="1" parent="7yYuBdGiNPjpBp-45Gdu-21">
          <mxGeometry x="600" y="440" width="20" height="20" as="geometry" />
        </mxCell>
        <mxCell id="8onp3w-1rk00jEaGF2zk-9" value="&lt;b&gt;X&lt;/b&gt;" style="text;html=1;strokeColor=#666666;fillColor=#f5f5f5;align=center;verticalAlign=middle;whiteSpace=wrap;rounded=0;fontSize=12;fontColor=#333333;" vertex="1" parent="7yYuBdGiNPjpBp-45Gdu-21">
          <mxGeometry x="640" y="500" width="20" height="20" as="geometry" />
        </mxCell>
        <mxCell id="8onp3w-1rk00jEaGF2zk-10" value="&lt;b&gt;X&lt;/b&gt;" style="text;html=1;strokeColor=#666666;fillColor=#f5f5f5;align=center;verticalAlign=middle;whiteSpace=wrap;rounded=0;fontSize=12;fontColor=#333333;" vertex="1" parent="7yYuBdGiNPjpBp-45Gdu-21">
          <mxGeometry x="600" y="540" width="20" height="20" as="geometry" />
        </mxCell>
        <mxCell id="8onp3w-1rk00jEaGF2zk-11" value="&lt;b&gt;X&lt;/b&gt;" style="text;html=1;strokeColor=#666666;fillColor=#f5f5f5;align=center;verticalAlign=middle;whiteSpace=wrap;rounded=0;fontSize=12;fontColor=#333333;" vertex="1" parent="7yYuBdGiNPjpBp-45Gdu-21">
          <mxGeometry x="600" y="600" width="20" height="20" as="geometry" />
        </mxCell>
        <mxCell id="8onp3w-1rk00jEaGF2zk-12" value="&lt;b&gt;X&lt;/b&gt;" style="text;html=1;strokeColor=#666666;fillColor=#f5f5f5;align=center;verticalAlign=middle;whiteSpace=wrap;rounded=0;fontSize=12;fontColor=#333333;" vertex="1" parent="7yYuBdGiNPjpBp-45Gdu-21">
          <mxGeometry x="640" y="600" width="20" height="20" as="geometry" />
        </mxCell>
        <mxCell id="8onp3w-1rk00jEaGF2zk-13" value="&lt;b&gt;X&lt;/b&gt;" style="text;html=1;strokeColor=#666666;fillColor=#f5f5f5;align=center;verticalAlign=middle;whiteSpace=wrap;rounded=0;fontSize=12;fontColor=#333333;" vertex="1" parent="7yYuBdGiNPjpBp-45Gdu-21">
          <mxGeometry x="600" y="640" width="20" height="20" as="geometry" />
        </mxCell>
        <mxCell id="8onp3w-1rk00jEaGF2zk-14" value="&lt;b&gt;X&lt;/b&gt;" style="text;html=1;strokeColor=#666666;fillColor=#f5f5f5;align=center;verticalAlign=middle;whiteSpace=wrap;rounded=0;fontSize=12;fontColor=#333333;" vertex="1" parent="7yYuBdGiNPjpBp-45Gdu-21">
          <mxGeometry x="600" y="680" width="20" height="20" as="geometry" />
        </mxCell>
        <mxCell id="8onp3w-1rk00jEaGF2zk-15" value="&lt;b&gt;X&lt;/b&gt;" style="text;html=1;strokeColor=#666666;fillColor=#f5f5f5;align=center;verticalAlign=middle;whiteSpace=wrap;rounded=0;fontSize=12;fontColor=#333333;" vertex="1" parent="7yYuBdGiNPjpBp-45Gdu-21">
          <mxGeometry x="620" y="680" width="20" height="20" as="geometry" />
        </mxCell>
        <mxCell id="8onp3w-1rk00jEaGF2zk-16" value="&lt;b&gt;X&lt;/b&gt;" style="text;html=1;strokeColor=#666666;fillColor=#f5f5f5;align=center;verticalAlign=middle;whiteSpace=wrap;rounded=0;fontSize=12;fontColor=#333333;" vertex="1" parent="7yYuBdGiNPjpBp-45Gdu-21">
          <mxGeometry x="620" y="640" width="20" height="20" as="geometry" />
        </mxCell>
        <mxCell id="8onp3w-1rk00jEaGF2zk-17" value="&lt;b&gt;X&lt;/b&gt;" style="text;html=1;strokeColor=#666666;fillColor=#f5f5f5;align=center;verticalAlign=middle;whiteSpace=wrap;rounded=0;fontSize=12;fontColor=#333333;" vertex="1" parent="7yYuBdGiNPjpBp-45Gdu-21">
          <mxGeometry x="580" y="720" width="20" height="20" as="geometry" />
        </mxCell>
        <mxCell id="8onp3w-1rk00jEaGF2zk-18" value="&lt;b&gt;X&lt;/b&gt;" style="text;html=1;strokeColor=#666666;fillColor=#f5f5f5;align=center;verticalAlign=middle;whiteSpace=wrap;rounded=0;fontSize=12;fontColor=#333333;" vertex="1" parent="7yYuBdGiNPjpBp-45Gdu-21">
          <mxGeometry x="600" y="720" width="20" height="20" as="geometry" />
        </mxCell>
        <mxCell id="8onp3w-1rk00jEaGF2zk-19" value="&lt;b&gt;X&lt;/b&gt;" style="text;html=1;strokeColor=#666666;fillColor=#f5f5f5;align=center;verticalAlign=middle;whiteSpace=wrap;rounded=0;fontSize=12;fontColor=#333333;" vertex="1" parent="7yYuBdGiNPjpBp-45Gdu-21">
          <mxGeometry x="620" y="720" width="20" height="20" as="geometry" />
        </mxCell>
        <mxCell id="weiif7SemVRa6fSROJU4-0" value="Title/Diagram" parent="7yYuBdGiNPjpBp-45Gdu-0" />
        <mxCell id="weiif7SemVRa6fSROJU4-1" value="&lt;font style=&quot;font-size: 12px ; font-weight: normal&quot;&gt;&lt;i&gt;Diagram: Base System Logical Module - Qualities -&amp;nbsp;ISO-25010 Qualities Addressed - Reliability&lt;/i&gt;&lt;/font&gt;" style="text;strokeColor=none;fillColor=none;html=1;fontSize=24;fontStyle=1;verticalAlign=middle;align=left;shadow=0;glass=0;comic=0;opacity=30;fontColor=#808080;" vertex="1" parent="weiif7SemVRa6fSROJU4-0">
          <mxGeometry x="120" y="750" width="520" height="40" as="geometry" />
        </mxCell>
        <UserObject label="Notes" id="rTXSZRFItidOcvJBDXKf-0">
          <mxCell style="strokeColor=#bac8d3;html=1;fontColor=#2f5b7c;fontSize=12;align=left;horizontal=0;fontStyle=2" vertex="1" parent="weiif7SemVRa6fSROJU4-0">
            <mxGeometry x="200" y="180" width="20" height="100" as="geometry" />
          </mxCell>
        </UserObject>
        <UserObject label="Feature/Control" id="FTDPwAor0eUzIct3h98J-0">
          <mxCell style="strokeColor=#bac8d3;html=1;fontColor=#2f5b7c;fontSize=12;align=left;horizontal=0;fontStyle=2" vertex="1" parent="weiif7SemVRa6fSROJU4-0">
            <mxGeometry x="160" y="180" width="20" height="100" as="geometry" />
          </mxCell>
        </UserObject>
        <mxCell id="7yYuBdGiNPjpBp-45Gdu-17" value="Title/Page" visible="0" parent="7yYuBdGiNPjpBp-45Gdu-0" />
        <mxCell id="7yYuBdGiNPjpBp-45Gdu-18" value="" style="group;fontSize=10;" vertex="1" connectable="0" parent="7yYuBdGiNPjpBp-45Gdu-17">
          <mxGeometry x="120" y="120" width="560" height="45" as="geometry" />
        </mxCell>
        <mxCell id="7yYuBdGiNPjpBp-45Gdu-19" value="&lt;font style=&quot;font-size: 12px&quot;&gt;Base Logical Module - Qualities -&amp;nbsp;ISO-25010 Qualities Addressed - Reliability&lt;/font&gt;" style="text;strokeColor=none;fillColor=none;html=1;fontSize=24;fontStyle=1;verticalAlign=middle;align=left;shadow=0;glass=0;comic=0;opacity=30;fontColor=#808080;" vertex="1" parent="7yYuBdGiNPjpBp-45Gdu-18">
          <mxGeometry width="560" height="40" as="geometry" />
        </mxCell>
        <mxCell id="7yYuBdGiNPjpBp-45Gdu-20" value="" style="line;strokeWidth=2;html=1;shadow=0;glass=0;comic=0;fillColor=none;fontSize=10;fontColor=#CCCCCC;labelBackgroundColor=none;strokeColor=#CCCCCC;" vertex="1" parent="7yYuBdGiNPjpBp-45Gdu-18">
          <mxGeometry y="35" width="560" height="10" as="geometry" />
        </mxCell>
        <mxCell id="7yYuBdGiNPjpBp-45Gdu-1" value="About" parent="7yYuBdGiNPjpBp-45Gdu-0" />
        <mxCell id="I8C7GTXTVLJJKJ3ZEXBJ-0" value="Text" style="text;html=1;align=center;verticalAlign=middle;resizable=0;points=[];autosize=1;fontSize=12;fontFamily=Helvetica;" vertex="1" parent="7yYuBdGiNPjpBp-45Gdu-1">
          <mxGeometry x="372" y="570" width="40" height="20" as="geometry" />
        </mxCell>
      </root>
    </mxGraphModel>
  </diagram>
</mxfile>
